<?xml version="1.0" encoding="utf-8"?>
<!-- Generator: Adobe Illustrator 23.0.0, SVG Export Plug-In . SVG Version: 6.00 Build 0)  -->
<svg version="1.1" id="Слой_1" xmlns="http://www.w3.org/2000/svg" xmlns:xlink="http://www.w3.org/1999/xlink" x="0px" y="0px"
	 viewBox="0 0 500 117.2" style="enable-background:new 0 0 500 117.2;" xml:space="preserve">
<style type="text/css">
	.st0{fill-rule:evenodd;clip-rule:evenodd;fill:#2D7D2F;}
	.st1{fill:#72BF44;}
</style>
<g>
	<path class="st0" d="M38.1,33.5v13.6h49.5v27.4H38.1v32c3.9,1.8,7.9,3.1,12,4c24.1-5,46.7-26.5,47.5-64.6l0.2-12.5
		C97.7,33.5,38.1,33.5,38.1,33.5z"/>
	<path class="st1" d="M97.9,33.5l0.6-29.6C82.6,2.6,66.4,2,50.2,2S18,2.6,2,3.8L2.4,27l0.4,19c0,0,0.2,17.7,6.1,30.2
		c9.8,22.8,29.4,30.5,29.4,30.5v-32h49.5V47.3H38.1V33.6h59.8V33.5z"/>
	<polygon points="145,23 145,30.2 159.7,30.2 159.7,38.1 145,38.1 145,51.5 135.2,51.5 135.2,15.1 161,15.1 161,23 	"/>
	<path d="M187.8,41.7h-7.5v9.6h-9.8V15.1h18.8c2.9,0,5.3,0.4,7.2,0.9c1.8,0.6,3.1,1.7,4,3.3c0.9,1.7,1.3,3.9,1.3,6.8
		c0,2.6-0.2,4.4-0.4,5.7c-0.2,1.3-0.7,2.4-1.8,3.3c-0.9,0.9-2.6,1.7-4.8,2.2v0.4c2,0,3.7,0.7,4.8,1.8c1.1,1.1,1.7,2.6,1.7,4.6v7.4
		h-9.8v-5.2C191.7,43.4,190.4,41.7,187.8,41.7 M180.3,33.3h7.5c1.3,0,2.2-0.2,2.8-0.6c0.6-0.4,0.9-0.9,1.1-1.7s0.2-1.8,0.2-3.5
		s-0.2-2.8-0.7-3.3c-0.6-0.6-1.7-0.9-3.1-0.9h-7.5v9.9H180.3z"/>
	<polygon points="221.9,23 221.9,29.6 237.3,29.6 237.3,36.4 221.9,36.4 221.9,43.4 238.8,43.4 238.8,51.5 212.1,51.5 212.1,15.1 
		238.4,15.1 238.4,23 	"/>
	<polygon points="259.2,23 259.2,29.6 274.7,29.6 274.7,36.4 259.2,36.4 259.2,43.4 276.2,43.4 276.2,51.5 249.5,51.5 249.5,15.1 
		275.8,15.1 275.8,23 	"/>
	<path d="M286.6,51.5V15.1H305c3.5,0,6.3,0.6,8.3,1.5c2.2,0.9,3.7,2.4,4.8,4.4s1.5,4.8,1.5,8.3v7.5c0,3.5-0.4,6.3-1.3,8.3
		c-0.7,2.2-2.2,3.7-4.2,4.8s-4.6,1.5-7.9,1.5h-19.5V51.5z M296.2,23.5V43h8.5c3.3,0,5-2,5-6.3v-7.5c0-1.5-0.2-2.8-0.6-3.5
		s-0.9-1.3-1.5-1.7c-0.7-0.4-1.7-0.4-2.8-0.4h-8.6V23.5z"/>
	<path d="M345.7,51.7c-2.8,0-5-0.2-7-0.6s-3.7-1.1-5.2-2c-1.5-0.9-2.6-2.4-3.3-4c-0.7-1.8-1.3-4-1.3-6.6V28.1c0-2.8,0.4-5,1.3-6.6
		c0.7-1.8,2-3.1,3.3-4c1.5-0.9,3.1-1.7,5.2-2c2-0.4,4.4-0.6,7-0.6c2.8,0,5,0.2,7,0.6c2,0.4,3.7,1.1,5.2,2c1.5,0.9,2.6,2.4,3.3,4
		c0.7,1.8,1.3,4,1.3,6.6v10.3c0,2.8-0.4,5-1.3,6.6c-0.7,1.8-1.8,3.1-3.3,4c-1.5,0.9-3.1,1.7-5.2,2C350.9,51.5,348.5,51.7,345.7,51.7
		 M345.7,43.2c1.8,0,3.3-0.2,4.2-0.4s1.7-0.7,2-1.7c0.4-0.9,0.6-2.2,0.6-3.9v-8.1c0-1.3-0.2-2.4-0.4-3.1c-0.2-0.7-0.6-1.3-1.1-1.8
		c-0.6-0.4-1.1-0.7-2-0.7c-0.9-0.2-1.8-0.2-3.3-0.2c-1.8,0-3.1,0.2-4,0.4c-0.9,0.2-1.7,0.7-2,1.7c-0.4,0.7-0.7,2.2-0.7,3.9v8.1
		c0,1.8,0.4,3.1,0.7,3.9c0.4,0.9,1.1,1.5,2,1.7C342.6,43.2,343.9,43.2,345.7,43.2"/>
	<polygon points="381.4,23.5 382.3,51.5 372.7,51.5 372.7,15.1 388,15.1 395,37.9 395.2,37.9 401.8,15.1 417.6,15.1 417.6,51.5 
		407.9,51.5 408.8,23.5 408.6,23.5 399.4,51.5 391,51.5 381.8,23.5 	"/>
	<path d="M147.4,71.4v3.1h-6.6v22.3h-3.9V74.3H133v-3.1h3.9v-3.9c0-2.8,0.6-4.8,1.8-5.9c1.3-1.1,3.3-1.7,6.3-1.7l2.4,0.2v3.1
		c-0.7-0.2-1.3-0.2-2-0.2h-0.7c-1.5,0-2.4,0.4-2.9,0.9c-0.6,0.6-0.9,1.7-0.9,3.1v4h6.6V71.4z"/>
	<path d="M157.7,64.6h-3.9v-4.2h3.9V64.6z M157.7,96.8h-3.9V71.4h3.9V96.8z"/>
	<path d="M170.4,81.1v15.6h-3.9V71.4h3.7v3.3c0.9-1.5,2.2-2.4,3.7-2.9c1.3-0.4,2.9-0.7,5-0.7c3.5,0,5.9,0.6,7.2,1.8
		c1.3,1.3,2,3.7,2,7.2v16.7h-3.9V80.4c0-2.6-0.4-4.2-1.1-5s-2.4-1.3-5-1.3c-2.6,0-4.4,0.6-5.7,1.7C170.9,76.9,170.4,78.5,170.4,81.1
		"/>
	<path d="M214,84.2v-3.7c0-3.1-0.4-5-1.3-5.7s-2.9-1.1-6.1-1.1c-2.4,0-3.9,0.2-4.8,0.7c-0.9,0.6-1.3,1.5-1.3,3.1v0.7h-3.9
		c0-3.1,0.9-5.3,2.9-6.3c1.3-0.7,3.7-1.1,7.2-1.1c3.9,0,6.6,0.6,8.3,1.5c2,1.3,2.9,3.7,2.9,7.5v16.9h-3.7l0.2-3.1
		c-0.9,1.7-1.8,2.6-2.9,2.9c-1.1,0.4-2.9,0.7-5.7,0.7c-3.5,0-5.9-0.6-7.4-1.5c-1.8-1.1-2.6-3.5-2.6-6.6c0-3.1,0.9-5.2,2.6-6.3
		c1.5-0.9,3.9-1.5,7-1.5c2.9,0,5,0.2,6.1,0.6C212.7,82.6,213.4,83.1,214,84.2 M214,89.4c0-2.2-0.6-3.5-1.7-4.2
		c-1.1-0.6-3.3-0.9-6.8-0.9c-2,0-3.5,0.2-4.4,0.7c-0.9,0.7-1.5,1.8-1.5,3.5c0,2.2,0.4,3.5,1.3,4.4c0.9,0.7,2.4,1.1,4.6,1.1
		c2.9,0,5-0.2,6.1-0.6C213.2,92.9,214,91.6,214,89.4"/>
	<path d="M230.3,81.1v15.6h-3.9V71.4h3.7v3.3c0.9-1.5,2.2-2.4,3.7-2.9c1.3-0.4,2.9-0.7,5-0.7c3.5,0,5.9,0.6,7.2,1.8
		c1.3,1.3,2,3.7,2,7.2v16.7h-3.9V80.4c0-2.6-0.4-4.2-1.1-5c-0.7-0.7-2.4-1.3-5-1.3s-4.4,0.6-5.7,1.7
		C231.1,76.9,230.3,78.5,230.3,81.1"/>
	<path d="M274.3,87.6h3.7c0,3.9-0.9,6.4-2.6,7.7c-1.5,1.3-4.4,1.8-8.5,1.8c-4.2,0-7.2-0.9-8.6-2.8c-1.5-1.8-2.2-5.3-2.2-10.3
		c0-5,0.7-8.5,2.2-10.3c1.5-1.8,4.4-2.8,8.5-2.8c3.5,0,6.1,0.6,7.7,1.5c2,1.3,2.9,3.3,2.9,6.3v0.7h-3.7c0-2.2-0.4-3.5-1.3-4.2
		c-0.9-0.9-2.8-1.3-5.7-1.3c-2.8,0-4.8,0.6-5.5,1.8c-0.9,1.3-1.3,3.9-1.3,8.1c0,4,0.6,6.8,1.5,8.1c0.9,1.3,2.8,2,5.7,2
		c2.9,0,5-0.4,5.9-1.3C273.8,92,274.3,90.1,274.3,87.6"/>
	<path d="M307.4,84.8h-18.2c0,3.9,0.4,6.4,1.3,7.5c0.9,1.3,2.9,1.8,5.9,1.8c2.9,0,5-0.4,5.9-0.9c0.9-0.6,1.3-1.7,1.3-3.5V89h3.9
		c0,3.3-0.9,5.7-2.8,6.8c-1.5,0.9-4.2,1.5-8.3,1.5c-4.2,0-7.2-0.9-8.8-2.8s-2.4-5.3-2.4-10.5c0-5,0.9-8.3,2.6-10.3
		c1.7-1.8,4.6-2.9,8.5-2.9c3.9,0,6.8,0.9,8.5,2.6c1.7,1.8,2.6,4.8,2.6,9.2v2.2H307.4z M303.6,81.9c0-2.9-0.6-5-1.5-6.1
		c-1.1-1.1-2.9-1.7-5.7-1.7s-4.6,0.6-5.7,1.7c-1.1,1.1-1.5,3.1-1.5,6.1H303.6z"/>
</g>
</svg>
